HIERARCHY
ROOT Hips
{
	OFFSET 0.00 0.00 0.00
	CHANNELS 6 Xposition Yposition Zposition Yrotation Xrotation Zrotation
	JOINT Spine
	{
		OFFSET	0.0000	9.2263	1.5771
		CHANNELS 3 Xrotation Yrotation Zrotation
		JOINT Spine1
		{
			OFFSET	0.0000	16.2540	-0.1656
			CHANNELS 3 Xrotation Yrotation Zrotation
			JOINT Spine2
			{
				OFFSET	0.0000	13.6396	-1.2923
				CHANNELS 3 Xrotation Yrotation Zrotation
				JOINT Neck
				{
					OFFSET	0.0000	13.8774	-4.3542
					CHANNELS 3 Xrotation Yrotation Zrotation
					JOINT Neck1
					{
						OFFSET	0.0000	4.3400	0.9269
						CHANNELS 3 Xrotation Yrotation Zrotation
						JOINT Head
						{
							OFFSET	0.0000	4.0266	0.8585
							CHANNELS 3 Xrotation Yrotation Zrotation
							End Site
							{
								OFFSET 0.0000 23.0297 0.1231
							}
						}
					}
				}
				JOINT LeftShoulder
				{
					OFFSET	6.1442	10.1870	-3.7932
					CHANNELS 3 Zrotation Xrotation Yrotation
					JOINT LeftArm
					{
						OFFSET	12.3191	-1.1130	-1.7935
						CHANNELS 3 Zrotation Xrotation Yrotation
						JOINT LeftForeArm
						{
							OFFSET	27.6870	0.0000	0.0000
							CHANNELS 3 Xrotation Zrotation Yrotation
							JOINT LeftHand
							{
								OFFSET	27.8738	0.0000	0.0000
								CHANNELS 3 Zrotation Yrotation Xrotation
								JOINT LeftHandThumb1
								{
									OFFSET	2.3785	-1.0029	2.6209
									CHANNELS 3 Zrotation Xrotation Yrotation
									JOINT LeftHandThumb2
									{
										OFFSET	3.3624	-1.0029	2.8398
										CHANNELS 3 Zrotation Xrotation Yrotation
										JOINT LeftHandThumb3
										{
											OFFSET	4.5018	-1.3445	2.1783
											CHANNELS 3 Zrotation Xrotation Yrotation
											End Site
											{
												OFFSET 2.6000 -1.0000 1.0000
											}
										}
									}
								}
								JOINT LeftHandMiddle1
								{
									OFFSET	10.4639	0.6148	0.4298
									CHANNELS 3 Zrotation Xrotation Yrotation
									JOINT LeftHandMiddle2
									{
										OFFSET	5.7921	0.0000	0.0000
										CHANNELS 3 Zrotation Xrotation Yrotation
										JOINT LeftHandMiddle3
										{
											OFFSET	3.7132	0.0000	0.0000
											CHANNELS 3 Zrotation Xrotation Yrotation
											End Site
											{
												OFFSET 2.3000 0.0000 0.0000
											}
										}
									}
								}
								JOINT LeftHandIndex1
								{
									OFFSET	10.3945	0.6148	2.7055
									CHANNELS 3 Zrotation Xrotation Yrotation
									JOINT LeftHandIndex2
									{
										OFFSET	5.5493	0.0000	0.0000
										CHANNELS 3 Zrotation Xrotation Yrotation
										JOINT LeftHandIndex3
										{
											OFFSET	3.3911	0.0000	0.0000
											CHANNELS 3 Zrotation Xrotation Yrotation
											End Site
											{
												OFFSET 2.5000 0.0000 0.0000
											}
										}
									}
								}
								JOINT LeftHandRing1
								{
									OFFSET	10.3252	0.3211	-1.8755
									CHANNELS 3 Zrotation Xrotation Yrotation
									JOINT LeftHandRing2
									{
										OFFSET	5.4452	0.0000	0.0000
										CHANNELS 3 Zrotation Xrotation Yrotation
										JOINT LeftHandRing3
										{
											OFFSET	3.7132	0.0000	0.0000
											CHANNELS 3 Zrotation Xrotation Yrotation
											End Site
											{
												OFFSET 2.0000 0.0000 0.0000
											}
										}
									}
								}
								JOINT LeftHandPinky1
								{
									OFFSET	10.0130	-0.0783	-3.9671
									CHANNELS 3 Zrotation Xrotation Yrotation
									JOINT LeftHandPinky2
									{
										OFFSET	3.6763	0.0000	0.0000
										CHANNELS 3 Zrotation Xrotation Yrotation
										JOINT LeftHandPinky3
										{
											OFFSET	2.8113	0.0000	0.0000
											CHANNELS 3 Zrotation Xrotation Yrotation
											End Site
											{
												OFFSET 2.9000 0.0000 0.0000
											}
										}
									}
								}
							}
						}
					}
				}
				JOINT RightShoulder
				{
					OFFSET	-6.1402	10.1870	-3.7932
					CHANNELS 3 Zrotation Xrotation Yrotation
					JOINT RightArm
					{
						OFFSET	-12.3231	-1.1130	-1.7935
						CHANNELS 3 Zrotation Xrotation Yrotation
						JOINT RightForeArm
						{
							OFFSET	-27.6870	0.0000	0.0000
							CHANNELS 3 Xrotation Zrotation Yrotation
							JOINT RightHand
							{
								OFFSET	-27.8738	0.0000	0.0000
								CHANNELS 3 Zrotation Yrotation Xrotation
								JOINT RightHandThumb1
								{
									OFFSET	-2.5178	-0.9367	2.5137
									CHANNELS 3 Zrotation Xrotation Yrotation
									JOINT RightHandThumb2
									{
										OFFSET	-3.2638	-1.0870	2.9669
										CHANNELS 3 Zrotation Xrotation Yrotation
										JOINT RightHandThumb3
										{
											OFFSET	-4.4165	-1.3703	2.1350
											CHANNELS 3 Zrotation Xrotation Yrotation
											End Site
											{
												OFFSET -2.6000 -1.0000 1.0000
											}
										}
									}
								}
								JOINT RightHandIndex1
								{
									OFFSET	-10.4665	0.4896	2.7120
									CHANNELS 3 Zrotation Xrotation Yrotation
									JOINT RightHandIndex2
									{
										OFFSET	-5.3768	0.0000	0.0000
										CHANNELS 3 Zrotation Xrotation Yrotation
										JOINT RightHandIndex3
										{
											OFFSET	-3.3855	0.0000	0.0000
											CHANNELS 3 Zrotation Xrotation Yrotation
											End Site
											{
												OFFSET -2.6000 0.0000 0.0000
											}
										}
									}
								}
								JOINT RightHandMiddle1
								{
									OFFSET	-10.7596	0.4896	0.4278
									CHANNELS 3 Zrotation Xrotation Yrotation
									JOINT RightHandMiddle2
									{
										OFFSET	-5.6168	0.0000	0.0000
										CHANNELS 3 Zrotation Xrotation Yrotation
										JOINT RightHandMiddle3
										{
											OFFSET	-3.7364	0.0000	0.0000
											CHANNELS 3 Zrotation Xrotation Yrotation
											End Site
											{
												OFFSET -2.3000 0.0000 0.0000
											}
										}
									}
								}
								JOINT RightHandRing1
								{
									OFFSET	-10.4702	0.3879	-1.9363
									CHANNELS 3 Zrotation Xrotation Yrotation
									JOINT RightHandRing2
									{
										OFFSET	-5.4013	0.0000	0.0000
										CHANNELS 3 Zrotation Xrotation Yrotation
										JOINT RightHandRing3
										{
											OFFSET	-3.3916	0.0000	0.0000
											CHANNELS 3 Zrotation Xrotation Yrotation
											End Site
											{
												OFFSET -2.2000 0.0000 0.0000
											}
										}
									}
								}
								JOINT RightHandPinky1
								{
									OFFSET	-9.9715	-0.1191	-3.9540
									CHANNELS 3 Zrotation Xrotation Yrotation
									JOINT RightHandPinky2
									{
										OFFSET	-3.6528	0.0000	0.0000
										CHANNELS 3 Zrotation Xrotation Yrotation
										JOINT RightHandPinky3
										{
											OFFSET	-2.7820	0.0000	0.0000
											CHANNELS 3 Zrotation Xrotation Yrotation
											End Site
											{
												OFFSET -2.9000 0.0000 0.0000
											}
										}
									}
								}
							}
						}
					}
				}
			}
		}
	}
	JOINT LeftUpLeg
	{
		OFFSET	9.6338	-3.2733	0.0000
		CHANNELS 3 Xrotation Yrotation Zrotation
		JOINT LeftLeg
		{
			OFFSET	0.0000	-41.7300	-1.7300
			CHANNELS 3 Xrotation Yrotation Zrotation
			JOINT LeftFoot
			{
				OFFSET	0.0126	-39.1900	-0.8477
				CHANNELS 3 Xrotation Yrotation Zrotation
				JOINT LeftToeBase
				{
					OFFSET	-0.1833	-12.1931	8.2823
					CHANNELS 3 Xrotation Yrotation Zrotation
					End Site
					{
						OFFSET 0.0000 0.0000 10.1681
					}
				}
			}
		}
	}
	JOINT RightUpLeg
	{
		OFFSET	-9.6338	-3.2733	0.0000
		CHANNELS 3 Xrotation Yrotation Zrotation
		JOINT RightLeg
		{
			OFFSET	0.0000	-41.7300	-1.7300
			CHANNELS 3 Xrotation Yrotation Zrotation
			JOINT RightFoot
			{
				OFFSET	0.0126	-39.1900	-0.8477
				CHANNELS 3 Xrotation Yrotation Zrotation
				JOINT RightToeBase
				{
					OFFSET	-0.1833	-12.1931	8.2823
					CHANNELS 3 Xrotation Yrotation Zrotation
					End Site
					{
						OFFSET 0.0032 0.0000 10.1681
					}
				}
			}
		}
	}
}
MOTION
Frames: 6
Frame Time: 0.0333333
0.0200 95.1567 -0.0341 1.9230 1.9390 0.2709 6.1663 -1.3042 -0.3198 2.4982 -2.4195 1.2324 2.4715 -2.3753 1.3421 -0.4768 2.1292 -0.2375 -0.0000 0.0000 -0.0000 -3.1929 4.5310 -1.8794 -14.2081 2.6098 -8.8000 -58.2632 25.3986 -5.5304 0.0000 0.0000 -11.0614 -13.4008 6.9127 8.1456 4.6372 10.6972 10.5571 5.5560 1.1238 -3.5930 25.2382 -1.1051 -9.5935 -23.5867 0.0016 -0.5686 -11.9613 0.0003 -0.0031 -13.9624 0.0004 -0.0036 -13.7668 0.0005 -8.6448 -15.1749 0.0005 -0.0039 -15.1749 0.0005 -0.0039 -24.5297 0.0017 1.9439 -19.4198 0.0009 -0.0050 -21.4151 0.0010 -0.0055 -31.1633 0.0026 3.4743 -17.8077 0.0007 -0.0046 -17.7890 0.0007 -0.0046 15.6819 1.6512 3.8317 46.5399 23.0055 17.3850 0.0000 0.0000 23.1988 8.3455 -1.3528 3.3924 1.8852 18.7961 -12.6095 -5.1696 -1.0370 -5.1325 -16.9108 -17.7304 -0.5748 17.7327 0.0004 8.4452 23.8200 0.0007 0.0032 10.5220 0.0001 0.0014 19.5799 0.0006 4.0049 35.3995 0.0015 0.0046 20.5823 0.0005 0.0028 21.8880 0.0007 1.7661 47.4819 0.0026 0.0058 23.1660 0.0006 0.0031 26.9111 0.0010 1.4247 28.6861 0.0010 0.0038 15.9299 0.0003 0.0022 -30.6506 9.0847 4.9550 60.7696 -4.7312 -0.4133 -1.4319 0.0722 -1.6391 -8.2041 0.0000 -0.0000 -13.9442 -7.3345 1.0572 22.3050 2.7484 -3.6565 -11.0802 -0.0101 0.2793 -4.9718 0.0000 -0.0000 
0.3935 95.2165 3.3633 1.5292 1.6956 0.8992 6.1008 -0.4934 -1.0117 2.5692 -2.1515 1.0668 2.5436 -2.1085 1.1694 -0.3271 2.0719 -0.3569 -0.0000 0.0000 -0.0000 -2.4347 4.3729 -2.2741 -14.3894 2.5344 -8.4004 -58.2786 25.3759 -3.2785 -0.0000 0.0000 -15.0781 -12.9673 6.2603 3.6844 4.6372 10.6972 10.5571 5.5560 1.1238 -3.5930 25.2382 -1.1051 -9.5935 -23.5867 0.0016 -0.5686 -11.9613 0.0003 -0.0031 -13.9624 0.0004 -0.0036 -13.7668 0.0005 -8.6447 -15.1749 0.0005 -0.0039 -15.1749 0.0005 -0.0039 -24.5297 0.0017 1.9439 -19.4198 0.0009 -0.0050 -21.4151 0.0010 -0.0055 -31.1633 0.0026 3.4743 -17.8077 0.0007 -0.0046 -17.7890 0.0007 -0.0046 15.4237 1.6341 3.9098 47.5070 22.7874 16.6379 -0.0000 -0.0000 24.8680 8.9917 -0.9270 3.2616 1.8852 18.7961 -12.6095 -5.1696 -1.0370 -5.1326 -16.9108 -17.7304 -0.5748 17.7327 0.0004 8.4452 23.8200 0.0007 0.0032 10.5220 0.0001 0.0014 19.5800 0.0006 4.0049 35.3995 0.0015 0.0046 20.5823 0.0005 0.0028 21.8880 0.0007 1.7661 47.4818 0.0026 0.0058 23.1660 0.0006 0.0031 26.9111 0.0010 1.4247 28.6861 0.0010 0.0038 15.9299 0.0003 0.0022 -31.9528 8.3210 3.8849 54.0378 -4.9590 -0.8390 -3.4888 0.1194 0.9204 -7.4404 0.0000 -0.0000 -11.2571 -7.7513 0.0763 22.0619 3.8289 -3.5864 -13.3351 -0.0055 0.4147 -4.9334 0.0000 -0.0000 
0.8379 94.9471 6.8449 1.1482 1.3466 1.3720 6.2394 0.0570 -1.3517 2.6204 -1.8977 0.9219 2.5963 -1.8558 1.0162 -0.2842 1.9824 -0.4741 -0.0000 0.0000 -0.0000 -2.1364 4.3420 -2.6663 -14.7606 2.3392 -7.3983 -58.2007 24.9556 -1.8121 0.0000 -0.0000 -18.3098 -13.0672 6.1196 2.1959 4.6372 10.6972 10.5571 5.5559 1.1238 -3.5930 25.2382 -1.1050 -9.5935 -23.5868 0.0016 -0.5686 -11.9613 0.0003 -0.0031 -13.9624 0.0004 -0.0036 -13.7668 0.0005 -8.6448 -15.1749 0.0005 -0.0039 -15.1749 0.0005 -0.0039 -24.5297 0.0017 1.9439 -19.4198 0.0009 -0.0050 -21.4151 0.0010 -0.0055 -31.1633 0.0026 3.4743 -17.8077 0.0007 -0.0046 -17.7891 0.0007 -0.0046 15.2813 1.7245 4.4434 49.2355 20.9089 14.8552 -0.0000 0.0000 26.8853 10.4613 -1.2885 4.1353 1.8852 18.7960 -12.6095 -5.1696 -1.0370 -5.1326 -16.9108 -17.7304 -0.5748 17.7327 0.0004 8.4452 23.8200 0.0007 0.0032 10.5220 0.0001 0.0014 19.5800 0.0006 4.0049 35.3995 0.0015 0.0046 20.5823 0.0005 0.0028 21.8880 0.0007 1.7661 47.4818 0.0026 0.0058 23.1661 0.0006 0.0031 26.9111 0.0010 1.4247 28.6861 0.0010 0.0038 15.9299 0.0003 0.0022 -31.9671 7.5737 3.2473 44.6729 -3.1279 -0.8454 -3.4911 0.2104 -0.4828 -7.4238 0.0000 -0.0000 -9.0134 -8.2876 -0.9753 23.0827 4.8423 -3.4481 -16.3245 -0.0027 0.5268 -4.8831 0.0000 -0.0000 
1.3542 94.4763 10.3070 0.9736 1.3144 1.3986 6.1923 0.3041 -1.1017 2.5677 -1.6889 0.8194 2.5456 -1.6478 0.9049 -0.3023 1.8470 -0.5331 -0.0000 0.0000 -0.0000 -2.1104 4.3645 -3.1493 -15.1305 2.0869 -6.1572 -57.9663 24.5104 -2.0977 -0.0000 0.0000 -18.6957 -13.0594 4.8510 3.1500 4.6372 10.6972 10.5571 5.5560 1.1238 -3.5930 25.2382 -1.1050 -9.5935 -23.5867 0.0016 -0.5686 -11.9613 0.0003 -0.0031 -13.9624 0.0005 -0.0036 -13.7668 0.0005 -8.6448 -15.1749 0.0005 -0.0039 -15.1749 0.0005 -0.0039 -24.5297 0.0017 1.9439 -19.4198 0.0009 -0.0050 -21.4151 0.0010 -0.0055 -31.1633 0.0026 3.4743 -17.8077 0.0007 -0.0046 -17.7890 0.0007 -0.0046 15.5209 1.9313 5.2640 50.8249 17.4245 12.3739 -0.0000 -0.0000 28.4431 12.5078 -1.6122 6.4556 1.8852 18.7961 -12.6095 -5.1696 -1.0370 -5.1325 -16.9108 -17.7304 -0.5748 17.7327 0.0004 8.4452 23.8200 0.0007 0.0032 10.5220 0.0001 0.0014 19.5800 0.0006 4.0049 35.3995 0.0015 0.0046 20.5823 0.0005 0.0028 21.8880 0.0007 1.7661 47.4818 0.0026 0.0058 23.1661 0.0006 0.0031 26.9111 0.0010 1.4247 28.6861 0.0010 0.0038 15.9300 0.0003 0.0022 -31.6003 6.5846 2.9850 33.4553 -1.6909 -0.3668 -1.1160 0.2038 -4.1147 -5.8920 0.0000 -0.0000 -6.9081 -8.8235 -1.6469 23.8194 5.5137 -3.2173 -19.1813 -0.0273 0.7091 -4.7967 0.0000 -0.0000 
1.8972 93.9530 13.6657 1.0520 1.4241 1.0668 6.3359 0.2933 -0.4752 2.3856 -1.5280 0.7819 2.3659 -1.4874 0.8584 -0.3787 1.6998 -0.5296 -0.0000 0.0000 -0.0000 -2.3493 4.5925 -3.6669 -15.5713 1.8372 -4.9799 -57.5277 24.1802 -3.7696 0.0000 -0.0000 -17.0458 -12.5011 2.6573 4.3679 4.6372 10.6972 10.5571 5.5560 1.1238 -3.5930 25.2382 -1.1051 -9.5935 -23.5867 0.0016 -0.5686 -11.9613 0.0003 -0.0031 -13.9624 0.0004 -0.0036 -13.7668 0.0005 -8.6448 -15.1749 0.0005 -0.0039 -15.1749 0.0005 -0.0039 -24.5297 0.0017 1.9439 -19.4198 0.0009 -0.0050 -21.4151 0.0010 -0.0055 -31.1633 0.0026 3.4743 -17.8077 0.0007 -0.0046 -17.7890 0.0007 -0.0046 15.9429 2.1781 6.1069 52.0029 13.0734 10.0042 -0.0000 -0.0000 29.2111 13.5581 -2.0638 9.3497 1.8852 18.7960 -12.6095 -5.1696 -1.0370 -5.1325 -16.9108 -17.7304 -0.5748 17.7327 0.0004 8.4452 23.8200 0.0007 0.0032 10.5220 0.0001 0.0014 19.5800 0.0006 4.0049 35.3995 0.0015 0.0046 20.5823 0.0005 0.0028 21.8880 0.0007 1.7661 47.4818 0.0026 0.0058 23.1661 0.0006 0.0031 26.9111 0.0010 1.4247 28.6861 0.0010 0.0038 15.9300 0.0003 0.0022 -30.8351 5.5391 2.6642 20.9994 -1.2439 1.0106 1.7378 0.0293 -8.2594 -4.4535 0.0000 -0.0000 -4.3822 -9.3316 -1.8184 23.3901 5.8910 -3.0060 -21.3842 -0.0994 1.0225 -4.7700 0.0000 -0.0000 
2.4278 93.2827 17.1085 0.7794 1.4985 0.4508 6.5107 0.3432 0.2201 2.1902 -1.3395 0.8066 2.1729 -1.3049 0.8746 -0.5264 1.6279 -0.5186 -0.0000 0.0000 -0.0000 -2.0345 5.4970 -3.5314 -16.0768 1.5860 -3.8199 -57.3988 23.8705 -3.9858 0.0000 -0.0000 -18.6014 -11.3451 2.0687 4.4575 4.6372 10.6972 10.5571 5.5560 1.1238 -3.5930 25.2382 -1.1051 -9.5935 -23.5867 0.0016 -0.5686 -11.9613 0.0003 -0.0031 -13.9624 0.0004 -0.0036 -13.7668 0.0005 -8.6448 -15.1749 0.0005 -0.0039 -15.1749 0.0005 -0.0039 -24.5297 0.0017 1.9439 -19.4198 0.0009 -0.0050 -21.4151 0.0010 -0.0055 -31.1633 0.0026 3.4743 -17.8077 0.0007 -0.0046 -17.7891 0.0007 -0.0046 16.3230 2.4379 7.0195 53.1787 8.6039 7.6621 -0.0000 -0.0000 29.9472 13.0967 -3.5782 11.9563 1.8852 18.7960 -12.6095 -5.1696 -1.0370 -5.1326 -16.9108 -17.7304 -0.5748 17.7327 0.0004 8.4452 23.8200 0.0007 0.0032 10.5220 0.0001 0.0014 19.5800 0.0006 4.0049 35.3995 0.0015 0.0046 20.5823 0.0005 0.0028 21.8880 0.0007 1.7661 47.4818 0.0026 0.0058 23.1661 0.0006 0.0031 26.9111 0.0010 1.4247 28.6861 0.0010 0.0038 15.9300 0.0003 0.0022 -30.5754 4.9255 2.5962 11.6201 -1.4892 2.3920 0.1782 0.2492 -9.4326 -4.6231 0.0000 -0.0000 -1.5074 -9.7643 -1.6458 22.4786 6.4684 -2.9087 -23.3580 -0.1994 1.4018 -4.7365 0.0000 -0.0000 
